<svg xmlns="http://www.w3.org/2000/svg" viewBox="0 0 24 24" width="24" height="24"><path d="M19.5 16.91c-.912 0-1.744.36-2.366.937l-7.17-3.524c.045-.2.077-.404.077-.613 0-.21-.032-.413-.077-.613l7.17-3.524c.623.577 1.454.937 2.366.937 2.062 0 3.75-1.688 3.75-3.75s-1.688-3.75-3.75-3.75-3.75 1.688-3.75 3.75c0 .209.032.412.077.613l-7.17 3.524c-.623-.577-1.454-.937-2.366-.937-2.062 0-3.75 1.688-3.75 3.75s1.688 3.75 3.75 3.75c.912 0 1.744-.36 2.366-.937l7.17 3.524c-.045.2-.077.404-.077.613 0 2.062 1.688 3.75 3.75 3.75s3.75-1.688 3.75-3.75-1.688-3.75-3.75-3.75z"/></svg>
